<svg xmlns="http://www.w3.org/2000/svg" width="26.002" height="26" viewBox="0 0 26.002 26">
  <g id="cancel" transform="translate(0 -0.016)">
    <g id="Group_34" data-name="Group 34" transform="translate(0 0.016)">
      <path id="Path_253" data-name="Path 253" d="M15.865,13.016l9.722-9.722a1.425,1.425,0,0,0,0-2.011L24.734.431a1.426,1.426,0,0,0-2.011,0L13,10.153,3.279.431a1.425,1.425,0,0,0-2.011,0l-.852.852a1.423,1.423,0,0,0,0,2.011l9.722,9.722L.416,22.738a1.426,1.426,0,0,0,0,2.011l.852.852a1.425,1.425,0,0,0,2.011,0L13,15.879,22.723,25.6a1.411,1.411,0,0,0,1.005.415h0a1.411,1.411,0,0,0,1.006-.415l.852-.852a1.426,1.426,0,0,0,0-2.011Z" transform="translate(0 -0.016)"/>
    </g>
  </g>
</svg>
